<?xml version="1.0" encoding="UTF-8"?>
<svg version="1.1" xmlns="http://www.w3.org/2000/svg" width="31" height="32" >
<path d="M0 0 C2.38071696 0.00052031 4.76143434 -0.00000396 7.14215088 -0.00151062 C12.09727511 -0.0014216 17.05223429 0.00886664 22.00732422 0.02709961 C28.31997926 0.04983377 34.63239502 0.05031406 40.9450798 0.04358196 C45.8490609 0.0402226 50.75298861 0.04690816 55.65695953 0.0567112 C57.98348968 0.06052586 60.31002581 0.06172715 62.63655853 0.06012535 C97.02316278 0.05616361 125.38161861 6.51461311 151.13671875 30.62109375 C164.32049466 44.05362015 173.63121415 61.00205925 177.828125 79.36328125 C178.01141357 80.14896484 178.19470215 80.93464844 178.38354492 81.74414062 C180.27181886 91.19141909 180.23508291 100.7139861 180.25366211 110.31054688 C180.26568686 113.25342038 180.31511802 116.19427766 180.36523438 119.13671875 C180.37468732 121.02212532 180.38192774 122.90754457 180.38671875 124.79296875 C180.40625107 125.66492889 180.42578339 126.53688904 180.44590759 127.43527222 C180.41423932 131.71681229 180.1635844 134.50283549 177.41821289 137.89892578 C173.62474678 141.50824305 171.2376803 141.75972928 166.15625 141.71875 C162.20042819 141.11475707 160.52154077 139.2587032 157.828125 136.36328125 C156.5635656 132.56960304 156.65356429 128.98550713 156.6171875 125.03125 C156.58907337 123.3274651 156.56040873 121.62368922 156.53125 119.91992188 C156.49037166 117.25236717 156.45346732 114.58497238 156.42675781 111.91723633 C156.18661714 89.81394332 152.38142165 66.9165779 136.046875 50.58203125 C135.3146875 49.84984375 134.5825 49.11765625 133.828125 48.36328125 C133.828125 47.70328125 133.828125 47.04328125 133.828125 46.36328125 C133.25835937 46.10933594 132.68859375 45.85539062 132.1015625 45.59375 C129.55808015 44.21712296 127.63591937 42.57175793 125.453125 40.67578125 C109.45861829 27.77245299 90.62972115 24.20785063 70.56762695 24.21801758 C69.10928185 24.21297966 69.10928185 24.21297966 67.62147522 24.20783997 C64.4364389 24.1984125 61.25145562 24.19639092 58.06640625 24.1953125 C55.82976765 24.19209392 53.59312926 24.18872941 51.35649109 24.18522644 C46.67719027 24.17925544 41.99790787 24.17738442 37.31860352 24.17797852 C31.35882629 24.17807995 25.39916869 24.1644378 19.43941975 24.14720631 C14.82109549 24.13601975 10.20279953 24.13406135 5.58446312 24.13458824 C3.38910701 24.13341775 1.19374995 24.12904907 -1.00159264 24.12125587 C-26.35628251 24.03968146 -51.25178463 26.07406487 -70.46484375 44.859375 C-72.171875 46.36328125 -72.171875 46.36328125 -74.171875 46.36328125 C-74.44773438 46.96398437 -74.72359375 47.5646875 -75.0078125 48.18359375 C-76.171875 50.36328125 -76.171875 50.36328125 -78.796875 53.23828125 C-90.82666953 67.12107591 -96.21869101 85.17763878 -96.3828125 103.3046875 C-96.41086313 105.03972327 -96.43952745 106.7747492 -96.46875 108.50976562 C-96.51007535 111.22420153 -96.54699748 113.93845004 -96.57324219 116.65307617 C-96.60086832 119.2873227 -96.64671197 121.92075554 -96.6953125 124.5546875 C-96.69856537 125.36313614 -96.70181824 126.17158478 -96.70516968 127.00453186 C-96.82736061 132.61799832 -97.97654549 135.91464448 -101.796875 140.17578125 C-105.54363071 142.04915911 -109.07844975 142.14230682 -113.171875 141.36328125 C-116.24069316 139.64423373 -118.57544584 137.55613958 -120.171875 134.36328125 C-120.29602977 131.34255806 -120.36040762 128.3459824 -120.375 125.32421875 C-120.38070007 124.41056549 -120.38640015 123.49691223 -120.39227295 122.55557251 C-120.40173999 120.61030233 -120.40826366 118.66501598 -120.41210938 116.71972656 C-120.42167768 113.7985229 -120.45262463 110.87806544 -120.484375 107.95703125 C-120.63774535 81.25676389 -114.01670689 56.88149619 -96.171875 36.36328125 C-95.13933594 35.11417969 -95.13933594 35.11417969 -94.0859375 33.83984375 C-69.57621133 5.08294482 -35.5806294 -0.15577673 0 0 Z " fill="#000000" transform="translate(226.171875,275.63671875)"/>
<path d="M0 0 C1.05316406 0.350625 2.10632813 0.70125 3.19140625 1.0625 C21.82833253 8.06045928 37.60127519 22.97716074 45.93457031 41.02392578 C54.70841942 61.565567 56.55481288 85.0824345 48.15429688 106.11767578 C44.32177111 115.01751666 39.57381018 122.83542677 33 130 C32.33613281 130.75539062 31.67226563 131.51078125 30.98828125 132.2890625 C17.52880551 146.76857244 -1.5547484 155.3342749 -21.21875 156.3203125 C-32.74084111 156.66617632 -43.07149191 155.67101266 -54 152 C-55.05316406 151.649375 -56.10632813 151.29875 -57.19140625 150.9375 C-75.82833253 143.93954072 -91.60127519 129.02283926 -99.93457031 110.97607422 C-108.70841942 90.434433 -110.55481288 66.9175655 -102.15429688 45.88232422 C-98.32177111 36.98248334 -93.57381018 29.16457323 -87 22 C-86.33613281 21.24460937 -85.67226562 20.48921875 -84.98828125 19.7109375 C-63.47739802 -3.43016054 -29.42281723 -9.88346568 0 0 Z M-70 38 C-81.46559097 51.84397187 -85.06716611 66.40897151 -84 84 C-82.04826571 98.72672233 -73.92676912 111.60684113 -62.58984375 120.99609375 C-48.30833268 131.52050365 -33.20546074 134.88265142 -15.7578125 132.5703125 C-0.25493101 129.23945467 12.81483918 119.77002648 21.46875 106.60546875 C29.69677109 92.60523899 32.37433783 77.80864644 28.9375 61.8125 C24.53608952 46.77434753 15.16461418 34.3690172 1.66015625 26.4296875 C-22.77457724 13.29736378 -50.76665136 17.34195887 -70 38 Z " fill="#000000" transform="translate(283,99)"/>
</svg>
