<?xml version="1.0" standalone="no"?>
<!DOCTYPE svg PUBLIC "-//W3C//DTD SVG 20010904//EN"
 "http://www.w3.org/TR/2001/REC-SVG-20010904/DTD/svg10.dtd">
<svg version="1.0" xmlns="http://www.w3.org/2000/svg"
 width="32" height="31" viewBox="0 0 32.000000 32.000000"
 preserveAspectRatio="xMidYMid meet" >

<g transform="translate(0.000000,32.000000) scale(0.100000,-0.100000)"
fill="#E17A21" stroke="2">
<path d="M100 275 c0 -10 -10 -15 -27 -15 -33 0 -43 -7 -61 -38 -9 -15 -10
-28 -4 -35 6 -7 17 -35 25 -64 27 -91 48 -113 77 -78 16 20 59 19 81 -1 27
-24 42 -13 63 46 11 29 27 61 38 72 12 12 17 31 16 56 l-1 37 -4 -35 c-3 -19
-12 -43 -20 -52 -17 -19 -73 -25 -73 -7 0 6 8 8 19 4 22 -7 61 25 61 50 0 16
-34 55 -48 55 -13 0 -52 -40 -52 -53 0 -7 4 -19 10 -27 6 -9 5 -17 -3 -22 -16
-11 10 -28 42 -28 17 0 22 -4 17 -16 -3 -9 -6 -20 -6 -25 0 -5 -13 -9 -29 -9
-17 0 -33 -5 -36 -10 -8 -13 -62 -13 -70 0 -3 6 -19 10 -34 10 -24 0 -30 6
-39 39 -7 21 -12 41 -12 45 0 3 34 6 76 6 66 0 75 2 72 17 -2 9 -14 21 -28 25
l-25 8 27 -4 c19 -2 28 2 31 15 7 28 54 46 78 31 23 -14 29 -15 29 -3 0 5 -13
12 -29 16 -31 7 -70 -8 -84 -32 -11 -18 -27 -7 -27 18 0 14 -7 19 -25 19 -16
0 -25 -6 -25 -15z m40 -10 c0 -9 -6 -12 -15 -9 -8 4 -15 10 -15 15 0 5 7 9 15
9 8 0 15 -7 15 -15z m-70 -30 c0 -8 -9 -15 -20 -15 -20 0 -26 11 -13 23 12 13
33 7 33 -8z m50 0 c0 -8 -9 -15 -20 -15 -20 0 -26 11 -13 23 12 13 33 7 33 -8z
m118 8 c-24 -6 -23 -19 2 -19 11 0 20 5 20 11 0 5 4 4 9 -4 16 -25 1 -51 -30
-51 -16 0 -29 4 -29 9 0 4 11 6 25 3 14 -2 25 0 25 7 0 5 -6 8 -14 5 -8 -3
-17 0 -21 5 -3 6 -11 8 -17 5 -6 -4 -6 2 1 15 7 11 19 20 29 20 16 -1 16 -2 0
-6z m-78 -43 c0 -6 -30 -10 -70 -10 -40 0 -70 4 -70 10 0 6 30 10 70 10 40 0
70 -4 70 -10z m-76 -128 c3 -5 -1 -9 -9 -9 -8 0 -12 4 -9 9 3 4 7 8 9 8 2 0 6
-4 9 -8z m21 -21 c-3 -6 -14 -10 -23 -10 -15 1 -15 2 1 6 9 2 17 9 17 15 0 6
3 9 6 5 3 -3 3 -10 -1 -16z m115 -4 c11 -5 9 -6 -4 -4 -11 1 -21 9 -23 17 -3
10 -2 11 4 4 4 -6 15 -14 23 -17z"/>
</g>
</svg>
