<?xml version="1.0" standalone="no"?>
<!DOCTYPE svg PUBLIC "-//W3C//DTD SVG 20010904//EN"
 "http://www.w3.org/TR/2001/REC-SVG-20010904/DTD/svg10.dtd">
<svg version="1.0" xmlns="http://www.w3.org/2000/svg"
 width="512.000000pt" height="512.000000pt" viewBox="0 0 512.000000 512.000000"
 preserveAspectRatio="xMidYMid meet">

<g transform="translate(0.000000,512.000000) scale(0.100000,-0.100000)"
fill="#000000" stroke="none">
<path d="M2415 4786 c-68 -31 -95 -84 -95 -187 0 -57 -3 -71 -17 -76 -10 -3
-54 -21 -98 -39 l-79 -34 -51 49 c-63 61 -82 71 -140 71 -62 0 -87 -15 -177
-107 -83 -86 -93 -107 -86 -184 5 -45 11 -57 62 -108 l56 -57 -34 -79 c-18
-44 -36 -87 -39 -96 -4 -14 -23 -18 -91 -20 -91 -4 -118 -17 -160 -73 -19 -25
-21 -42 -21 -166 0 -124 2 -141 21 -166 41 -56 69 -69 157 -72 81 -4 116 -15
81 -25 -11 -3 -239 -53 -509 -112 -269 -58 -499 -109 -510 -114 -31 -13 -433
-689 -444 -745 -15 -82 15 -173 74 -225 19 -16 95 -53 179 -86 l146 -58 0
-441 c0 -373 2 -450 15 -488 15 -44 59 -97 100 -123 29 -19 1788 -705 1806
-705 8 0 418 157 910 350 l894 349 45 49 c25 27 51 67 58 89 9 29 12 166 12
480 l0 439 146 58 c80 32 159 70 175 84 17 13 41 47 56 75 21 43 24 61 21 121
l-4 71 -209 349 c-124 206 -218 352 -230 357 -11 5 -240 56 -510 114 -269 59
-498 109 -509 112 -35 10 0 21 81 25 88 3 116 16 157 72 19 25 21 42 21 166 0
124 -2 141 -21 166 -42 56 -69 69 -160 73 -68 2 -87 6 -91 20 -3 9 -21 52 -39
96 l-34 79 56 57 c51 51 57 63 62 108 7 77 -3 98 -86 184 -87 89 -117 108
-171 109 -60 1 -82 -10 -142 -69 l-56 -55 -33 17 c-18 9 -60 27 -94 40 l-61
23 -5 85 c-6 92 -19 120 -74 161 -24 18 -44 21 -154 24 -91 1 -135 -2 -157
-12z m225 -245 c0 -124 10 -139 120 -171 41 -12 107 -39 147 -61 40 -21 84
-39 99 -39 19 0 46 19 100 72 l75 72 56 -57 57 -56 -72 -75 c-53 -54 -72 -81
-72 -100 0 -15 18 -59 39 -99 22 -40 49 -106 61 -147 32 -110 47 -120 171
-120 l99 0 0 -80 0 -80 -99 0 c-124 0 -139 -10 -171 -120 -12 -41 -39 -107
-61 -147 -21 -40 -39 -84 -39 -99 0 -19 19 -46 72 -100 l72 -75 -57 -56 -56
-57 -75 72 c-54 53 -81 72 -100 72 -15 0 -59 -18 -99 -39 -40 -22 -106 -49
-147 -61 -110 -32 -120 -47 -120 -171 l0 -99 -80 0 -80 0 0 99 c0 124 -10 139
-120 171 -41 12 -107 39 -147 61 -40 21 -84 39 -99 39 -19 0 -46 -19 -100 -72
l-75 -72 -56 57 -57 56 72 75 c53 54 72 81 72 100 0 15 -18 59 -39 99 -22 40
-49 106 -61 147 -32 110 -47 120 -171 120 l-99 0 0 80 0 80 99 0 c124 0 139
10 171 120 12 41 39 107 61 147 21 40 39 84 39 99 0 19 -19 46 -72 100 l-72
75 57 56 56 57 75 -72 c54 -53 81 -72 100 -72 15 0 59 18 99 39 40 22 106 49
147 61 110 32 120 47 120 171 l0 99 80 0 80 0 0 -99z m-854 -1282 c3 -6 -19
-37 -51 -69 -52 -52 -58 -64 -63 -109 -7 -77 3 -98 86 -184 83 -86 119 -107
182 -107 52 0 73 11 135 71 l50 49 95 -39 95 -40 5 -85 c6 -91 19 -119 74
-160 25 -19 42 -21 166 -21 124 0 141 2 166 21 55 41 68 69 74 161 l5 85 61
23 c34 13 76 31 94 40 l33 17 56 -55 c60 -59 82 -70 142 -69 54 1 84 20 171
109 83 86 93 107 86 184 -5 46 -11 57 -64 110 -36 37 -55 62 -49 68 6 5 160
-24 394 -75 211 -46 385 -85 387 -86 6 -7 -1534 -603 -1556 -603 -32 0 -1563
598 -1547 604 10 4 733 165 759 170 4 0 10 -4 14 -10z m-181 -571 c451 -176
823 -323 827 -327 10 -8 -344 -600 -373 -623 -12 -10 -31 -18 -43 -18 -34 0
-1577 606 -1598 628 -40 40 -30 64 157 376 138 230 182 295 194 291 9 -4 385
-150 836 -327z m2940 35 c187 -311 197 -335 157 -375 -22 -23 -1563 -628
-1597 -628 -13 0 -35 10 -48 23 -23 21 -362 578 -369 606 -2 9 266 119 832
341 459 181 838 329 841 329 3 1 86 -132 184 -296z m-2068 -2200 c-2 -1 -372
141 -823 317 -530 208 -825 328 -836 341 -17 19 -18 55 -18 425 0 222 3 404 7
404 4 0 262 -100 573 -222 625 -245 635 -248 728 -208 29 13 64 36 77 52 14
16 85 129 157 251 l133 221 3 -789 c1 -433 1 -790 -1 -792z m306 1352 c69
-115 135 -222 146 -237 12 -15 46 -39 76 -54 96 -46 99 -45 737 204 311 122
569 222 572 222 3 0 6 -182 6 -404 0 -370 -1 -406 -17 -425 -12 -14 -295 -129
-836 -341 -450 -176 -821 -320 -823 -320 -2 0 -4 356 -4 792 0 440 4 788 9
783 4 -6 65 -104 134 -220z"/>
<path d="M2441 4144 c-253 -68 -410 -331 -346 -579 67 -256 329 -415 580 -350
256 67 415 329 350 578 -67 259 -333 419 -584 351z m270 -185 c67 -36 98 -68
137 -143 22 -43 26 -64 26 -136 1 -78 -2 -90 -33 -148 -38 -70 -70 -100 -145
-140 -43 -22 -64 -26 -136 -26 -72 0 -93 4 -136 26 -75 40 -107 70 -145 140
-31 58 -34 70 -33 148 0 100 24 160 89 225 100 100 249 121 376 54z"/>
</g>
</svg>
