<?xml version="1.0" encoding="UTF-8"?>
<svg version="1.1" xmlns="http://www.w3.org/2000/svg"  width="150" height="52"  >
<path fill="#E17A21" d="M0 0 C10.56 0 21.12 0 32 0 C32.020625 4.16625 32.04125 8.3325 32.0625 12.625 C32.071604 13.92775879 32.08070801 15.23051758 32.09008789 16.57275391 C32.09258545 17.61351074 32.09508301 18.65426758 32.09765625 19.7265625 C32.10289307 20.78439941 32.10812988 21.84223633 32.11352539 22.93212891 C32 26 32 26 31 32 C24.07 32 17.14 32 10 32 C10 30.35 10 28.7 10 27 C6.7 26.67 3.4 26.34 0 26 C0 17.42 0 8.84 0 0 Z M1 2 C0.92680379 4.69654854 0.90757463 7.36691458 0.9375 10.0625 C0.94201172 10.82111328 0.94652344 11.57972656 0.95117188 12.36132812 C0.9629932 14.24091871 0.98092922 16.12046899 1 18 C5.29 18 9.58 18 14 18 C13.67 17.01 13.34 16.02 13 15 C10.03 15.66 7.06 16.32 4 17 C4.185625 16.071875 4.37125 15.14375 4.5625 14.1875 C5.24123881 10.98656229 5.24123881 10.98656229 4 8 C4.66 7.67 5.32 7.34 6 7 C5.34 7 4.68 7 4 7 C4 5.35 4 3.7 4 2 C4.97066406 2.32742187 5.94132813 2.65484375 6.94140625 2.9921875 C11.3010926 4.23781217 15.43375972 4.2253404 19.9375 4.125 C20.71673828 4.11597656 21.49597656 4.10695313 22.29882812 4.09765625 C24.19935447 4.07433691 26.09972008 4.03847586 28 4 C27.67 8.62 27.34 13.24 27 18 C28.32 18 29.64 18 31 18 C31.02684679 15.35409986 31.04676357 12.70846904 31.0625 10.0625 C31.07087891 9.30775391 31.07925781 8.55300781 31.08789062 7.77539062 C31.09652441 5.85005687 31.05224333 3.92464419 31 2 C29.16965945 0.16965945 26.26788008 0.86957203 23.8125 0.8671875 C22.55695312 0.86589844 21.30140625 0.86460938 20.0078125 0.86328125 C19.02216309 0.86642334 19.02216309 0.86642334 18.01660156 0.86962891 C16.00838665 0.87497766 14.00039541 0.86968309 11.9921875 0.86328125 C10.73664062 0.86457031 9.48109375 0.86585937 8.1875 0.8671875 C7.02605469 0.86831543 5.86460937 0.86944336 4.66796875 0.87060547 C2.07936716 0.69662526 2.07936716 0.69662526 1 2 Z M10 6 C9.67 6.66 9.34 7.32 9 8 C9.66 8 10.32 8 11 8 C11 8.99 11 9.98 11 11 C10.01 11.495 10.01 11.495 9 12 C10.98 12.99 10.98 12.99 13 14 C13.61875 13.05125 14.2375 12.1025 14.875 11.125 C17 8 17 8 19 6 C16.03 6 13.06 6 10 6 Z M23 6 C24.485 6.99 24.485 6.99 26 8 C26 7.34 26 6.68 26 6 C25.01 6 24.02 6 23 6 Z M20 8 C19.67 8.99 19.34 9.98 19 11 C18.34 10.67 17.68 10.34 17 10 C16.34 11.32 15.68 12.64 15 14 C18.63 14 22.26 14 26 14 C25.67 13.01 25.34 12.02 25 11 C24.34 11 23.68 11 23 11 C22.67 10.01 22.34 9.02 22 8 C21.34 8 20.68 8 20 8 Z M16 16 C16.66 17.65 17.32 19.3 18 21 C20.41645782 21.16687448 20.41645782 21.16687448 23 21 C23.66 20.34 24.32 19.68 25 19 C25 18.01 25 17.02 25 16 C22.03 16 19.06 16 16 16 Z M1 20 C2 24 2 24 2 24 Z M30 20 C31 24 31 24 31 24 Z M24 22 C24.66 22.66 25.32 23.32 26 24 C26 23.34 26 22.68 26 22 C25.34 22 24.68 22 24 22 Z M12 28 C12 28.99 12 29.98 12 31 C12.99 31 13.98 31 15 31 C15 30.34 15 29.68 15 29 C15.66 29 16.32 29 17 29 C17 29.66 17 30.32 17 31 C19.64 31 22.28 31 25 31 C25 30.34 25 29.68 25 29 C25.66 29 26.32 29 27 29 C27 29.66 27 30.32 27 31 C27.66 31 28.32 31 29 31 C28.67 29.35 28.34 27.7 28 26 C22.23288634 24.15452363 16.81685851 24.05893395 12 28 Z " fill="#000000" transform="translate(0,0)"/>
</svg>
